<?xml version="1.0" encoding="utf-8"?>
<!-- Generator: Adobe Illustrator 19.0.0, SVG Export Plug-In . SVG Version: 6.00 Build 0)  -->
<svg version="1.0" id="Ebene_1" xmlns="http://www.w3.org/2000/svg" xmlns:xlink="http://www.w3.org/1999/xlink" x="0px" y="0px"
	 viewBox="0 0 101 83" style="enable-background:new 0 0 101 83;" xml:space="preserve">
<style type="text/css">
	.st0{fill:#14495A;}
	.st1{fill:#F28D21;}
	.st2{fill:#76CDD4;}
	.st3{fill:none;}
</style>
<g id="XMLID_841_">
	<g id="XMLID_983_">
		<path id="XMLID_1071_" class="st0" d="M40.1,48.8c0.9,0.5,1.6,1.2,2.1,2c0.5,0.9,0.8,1.8,0.8,2.9s-0.3,2.1-0.8,2.9
			c-0.5,0.9-1.2,1.5-2.1,2c-0.9,0.5-1.8,0.7-2.9,0.7c-1,0-2-0.2-2.9-0.7c-0.9-0.5-1.6-1.2-2.1-2c-0.5-0.9-0.8-1.8-0.8-2.9
			s0.3-2.1,0.8-2.9c0.5-0.9,1.2-1.5,2.1-2c0.9-0.5,1.8-0.7,2.9-0.7C38.2,48,39.2,48.3,40.1,48.8z M35.6,51.9c-0.4,0.4-0.6,1-0.6,1.8
			c0,0.8,0.2,1.3,0.6,1.8c0.4,0.4,0.9,0.7,1.6,0.7c0.7,0,1.2-0.2,1.6-0.7c0.4-0.4,0.6-1,0.6-1.8c0-0.8-0.2-1.4-0.6-1.8
			c-0.4-0.4-0.9-0.7-1.6-0.7C36.5,51.3,36,51.5,35.6,51.9z"/>
		<path id="XMLID_1068_" class="st0" d="M51.1,50.9c0.6,0.4,1,0.9,1.3,1.6c0.3,0.7,0.5,1.5,0.5,2.4c0,0.9-0.2,1.7-0.5,2.4
			c-0.3,0.7-0.8,1.2-1.3,1.6c-0.6,0.4-1.2,0.5-1.9,0.5c-0.6,0-1.1-0.1-1.5-0.4c-0.2-0.1-0.4-0.3-0.6-0.5c-0.1-0.1-0.3,0-0.3,0.1v4.6
			c0,0.1-0.1,0.3-0.2,0.3h-3.1c-0.1,0-0.2-0.2-0.2-0.3V50.7c0-0.1,0.1-0.2,0.2-0.2h3.1c0.1,0,0.2,0.1,0.2,0.2v0.4
			c0,0.2,0.2,0.3,0.3,0.1c0.2-0.2,0.4-0.3,0.6-0.5c0.4-0.2,0.9-0.4,1.5-0.4C49.9,50.4,50.5,50.6,51.1,50.9z M47.1,53.8
			c-0.2,0.3-0.4,0.6-0.4,1.1c0,0.5,0.1,0.8,0.4,1.1c0.2,0.3,0.5,0.4,0.9,0.4c0.4,0,0.7-0.1,0.9-0.4c0.2-0.3,0.4-0.6,0.4-1.1
			c0-0.5-0.1-0.8-0.4-1.1c-0.2-0.3-0.5-0.4-0.9-0.4C47.7,53.4,47.4,53.5,47.1,53.8z"/>
		<path id="XMLID_1066_" class="st0" d="M58.9,56.6v2.5c0,0.1-0.1,0.2-0.2,0.2h-1.1c-2.4,0-3.7-1.2-3.7-3.6v-2.1
			c0-0.1,0-0.2-0.1-0.2H53c-0.1,0-0.2-0.1-0.2-0.2v-2.5c0-0.1,0.1-0.2,0.2-0.2h0.7c0.1,0,0.1-0.1,0.1-0.2v-1.7
			c0-0.1,0.2-0.2,0.3-0.2h3.1c0.1,0,0.2,0.1,0.2,0.2v1.7c0,0.1,0.1,0.2,0.2,0.2h1c0.1,0,0.3,0.1,0.3,0.2v2.5c0,0.1-0.2,0.2-0.3,0.2
			h-1c-0.1,0-0.2,0.1-0.2,0.2v2.2c0,0.2,0.1,0.3,0.2,0.4c0.1,0.1,0.3,0.1,0.5,0.1h0.6C58.7,56.3,58.9,56.4,58.9,56.6z"/>
		<path id="XMLID_1063_" class="st0" d="M59.9,46.8c0.4-0.3,0.9-0.5,1.5-0.5c0.6,0,1.1,0.2,1.4,0.5c0.4,0.3,0.5,0.7,0.5,1.2
			c0,0.5-0.2,0.9-0.5,1.2c-0.4,0.3-0.8,0.5-1.4,0.5c-0.6,0-1.1-0.2-1.5-0.5c-0.4-0.3-0.5-0.7-0.5-1.2C59.4,47.6,59.5,47.2,59.9,46.8
			z M63.1,59.1c0,0.1-0.1,0.2-0.2,0.2h-3.1c-0.1,0-0.2-0.1-0.2-0.2v-8.4c0-0.1,0.1-0.2,0.2-0.2h3.1c0.1,0,0.2,0.1,0.2,0.2V59.1z"/>
		<path id="XMLID_1061_" class="st0" d="M78.5,51.4c0.6,0.7,0.9,1.6,0.9,2.8v4.9c0,0.1,0,0.2-0.1,0.2h-3.1c-0.1,0-0.2-0.1-0.2-0.2
			v-4.5c0-0.4-0.1-0.7-0.4-0.9c-0.2-0.2-0.5-0.3-0.9-0.3c-0.4,0-0.7,0.1-0.9,0.3c-0.2,0.2-0.3,0.5-0.3,0.9v4.5
			c0,0.1-0.2,0.2-0.3,0.2h-3.1c-0.1,0-0.2-0.1-0.2-0.2v-4.5c0-0.4-0.1-0.7-0.3-0.9c-0.2-0.2-0.5-0.3-0.9-0.3c-0.4,0-0.7,0.1-0.9,0.3
			c-0.2,0.2-0.3,0.5-0.3,0.9v4.5c0,0.1-0.1,0.2-0.2,0.2h-3.1c-0.1,0-0.2-0.1-0.2-0.2v-8.4c0-0.1,0.1-0.2,0.2-0.2h3.1
			c0.1,0,0.2,0.1,0.2,0.2v0.4c0,0.2,0.2,0.3,0.3,0.1c0.2-0.2,0.4-0.4,0.7-0.5c0.4-0.2,0.9-0.3,1.5-0.3c0.6,0,1.2,0.1,1.7,0.4
			c0.4,0.2,0.8,0.5,1,0.9c0.1,0.1,0.2,0.1,0.3,0c0.3-0.4,0.7-0.7,1.1-0.9c0.5-0.3,1-0.4,1.6-0.4C77,50.4,77.8,50.8,78.5,51.4z"/>
		<path id="XMLID_1059_" class="st0" d="M88.8,56.4h3c0.1,0,0.2,0.1,0.2,0.2v2.5c0,0.1-0.1,0.2-0.2,0.2h-7.1c-0.1,0-0.2-0.1-0.2-0.2
			v-2.4c0-0.1,0-0.1,0.1-0.1l2.9-2.8c0.1-0.1,0-0.3-0.1-0.3h-2.6c-0.1,0-0.3-0.1-0.3-0.2v-2.5c0-0.1,0.2-0.2,0.3-0.2h6.9
			c0.1,0,0.2,0.1,0.2,0.2v2.4c0,0.1,0,0.1-0.1,0.2l-3.1,2.8C88.5,56.2,88.6,56.4,88.8,56.4z"/>
		<path id="XMLID_1056_" class="st0" d="M100.8,55.5h-5.2c-0.1,0-0.2,0.1-0.2,0.2c0,0.3,0.1,0.5,0.3,0.7c0.2,0.2,0.4,0.2,0.7,0.2
			c0.3,0,0.6-0.1,0.8-0.4c0-0.1,0.1-0.1,0.2-0.1h3.3c0.1,0,0.2,0.1,0.2,0.3c-0.1,0.5-0.4,1-0.7,1.4c-0.4,0.5-0.9,0.9-1.5,1.2
			c-0.6,0.3-1.3,0.4-2,0.4c-0.9,0-1.7-0.2-2.3-0.5c-0.7-0.4-1.2-0.9-1.6-1.6c-0.4-0.7-0.6-1.5-0.6-2.4c0-0.9,0.2-1.7,0.6-2.4
			c0.4-0.7,0.9-1.2,1.6-1.6c0.7-0.4,1.5-0.5,2.3-0.5s1.7,0.2,2.3,0.5c0.7,0.4,1.2,0.9,1.6,1.5c0.4,0.7,0.6,1.5,0.6,2.4
			c0,0.2,0,0.3,0,0.5C100.9,55.4,100.9,55.5,100.8,55.5z M97.3,54.1c0.1,0,0.2-0.1,0.2-0.3c0-0.2-0.1-0.4-0.3-0.5
			c-0.2-0.2-0.4-0.2-0.7-0.2c-0.5,0-0.9,0.3-1,0.8c0,0.1,0.1,0.3,0.2,0.3H97.3z"/>
		<path id="XMLID_1050_" class="st1" d="M15.6,21.6v22.5c0,0.4-0.4,0.8-0.8,0.8H10c-0.5,0-0.8-0.4-0.8-0.8V21.6
			c0-0.4,0.4-0.8,0.8-0.8h4.8C15.3,20.8,15.6,21.2,15.6,21.6z"/>
		<path id="XMLID_1042_" class="st1" d="M76.6,26.4h-4.8c-0.4,0-0.7,0.3-0.8,0.7c-1.2-0.4-2.5-0.7-3.9-0.7c-1.8,0-3.5,0.4-4.9,1.1
			c-1.5,0.7-2.6,1.8-3.4,3.2c-0.8,1.4-1.2,3.1-1.2,5c0,1.9,0.4,3.6,1.2,5c0.8,1.4,2,2.5,3.4,3.3c1.5,0.8,3.1,1.1,4.9,1.1
			c1.4,0,2.8-0.2,4-0.7c0.1,0.3,0.4,0.5,0.7,0.5h4.8c0.5,0,0.8-0.4,0.8-0.8V27.2C77.5,26.8,77.1,26.4,76.6,26.4z M69.3,38.6
			c-0.6,0.7-1.3,1-2.2,1c-0.9,0-1.6-0.3-2.2-1c-0.6-0.7-0.9-1.6-0.9-2.9c0-1.2,0.3-2.2,0.9-2.8c0.6-0.7,1.3-1,2.2-1
			c0.9,0,1.6,0.3,2.2,1c0.6,0.7,0.9,1.6,0.9,2.8C70.2,37,69.9,37.9,69.3,38.6z"/>
		<path id="XMLID_1026_" class="st2" d="M55.4,37.4h-5.1c-0.3,0-0.6,0.2-0.7,0.5c-0.1,0.3-0.3,0.5-0.5,0.7c-0.6,0.7-1.3,1-2.2,1
			c-0.9,0-1.6-0.3-2.2-1c-0.6-0.7-0.9-1.6-0.9-2.9c0-1.2,0.3-2.2,0.9-2.8c0.6-0.7,1.3-1,2.2-1c0.9,0,1.6,0.4,2.2,1
			c0.2,0.2,0.4,0.4,0.5,0.7c0.1,0.3,0.4,0.5,0.7,0.5h5c0.5,0,0.9-0.5,0.8-1c-0.2-0.9-0.5-1.7-0.9-2.4c-0.8-1.4-2-2.5-3.4-3.3
			c-1.4-0.7-3.1-1.1-4.9-1.1c-1.8,0-3.5,0.4-4.9,1.1c-1.5,0.7-2.6,1.8-3.4,3.2c-0.5,0.8-0.8,1.7-1,2.6h-1.3c-0.2-1-0.5-2-1-2.8
			c-0.8-1.4-2-2.5-3.4-3.3c-1.4-0.7-3.1-1.1-4.9-1.1s-3.5,0.4-4.9,1.1c-1.5,0.7-2.6,1.8-3.4,3.2c-0.8,1.4-1.2,3.1-1.2,5
			c0,1.9,0.4,3.6,1.2,5c0.8,1.4,2,2.5,3.4,3.3c1.5,0.8,3.1,1.1,4.9,1.1s3.5-0.4,4.9-1.1c1.4-0.8,2.6-1.8,3.4-3.3
			c0.4-0.7,0.7-1.5,0.9-2.3h1.4c0.2,0.9,0.5,1.8,1,2.6c0.8,1.4,2,2.5,3.4,3.3c1.5,0.8,3.1,1.1,4.9,1.1c1.8,0,3.5-0.4,4.9-1.1
			c1.4-0.8,2.6-1.8,3.4-3.2c0.4-0.7,0.7-1.5,0.9-2.3C56.3,37.9,56,37.4,55.4,37.4z M29.2,38.4c-0.6,0.7-1.3,1-2.2,1
			c-0.9,0-1.6-0.3-2.2-1c-0.6-0.7-0.9-1.6-0.9-2.9c0-1.2,0.3-2.2,0.9-2.8c0.6-0.7,1.3-1,2.2-1c0.9,0,1.6,0.3,2.2,1
			c0.6,0.7,0.9,1.6,0.9,2.8C30.1,36.7,29.8,37.7,29.2,38.4z"/>
		<path id="XMLID_1025_" class="st0" d="M20,25.5c-0.6,0-1.1-0.3-1.5-0.7c-0.6-0.8-0.4-2,0.4-2.6c2.1-1.5,4.4-2.5,6.9-2.8
			c1-0.1,2-0.1,3,0c1,0.1,1.7,1,1.6,2c-0.1,1-1,1.7-2,1.6c-0.7-0.1-1.5-0.1-2.2,0c-1.8,0.2-3.6,0.9-5.1,2.1
			C20.8,25.4,20.4,25.5,20,25.5z"/>
		<g id="XMLID_1021_">
			<path id="XMLID_1022_" class="st0" d="M53.2,25.5c-0.4,0-0.8-0.1-1.1-0.4c-1.5-1.2-3.3-1.9-5.1-2.1c-0.7-0.1-1.4-0.1-2.2,0
				c-1,0.1-1.9-0.6-2-1.6c-0.1-1,0.6-1.9,1.6-2c1-0.1,2-0.1,3,0c2.4,0.3,4.8,1.2,6.9,2.8c0.8,0.6,1,1.8,0.4,2.6
				C54.3,25.3,53.8,25.5,53.2,25.5z"/>
		</g>
		<path id="XMLID_989_" class="st1" d="M79.9,44.9c0.6-0.3,1.4-0.5,2.1-0.5c0.8,0,1.5,0.2,2.2,0.5h0.6c0.5,0,0.8-0.4,0.8-0.8V21.6
			c0-0.4-0.4-0.8-0.8-0.8H80c-0.5,0-0.8,0.4-0.8,0.8v22.5C79.2,44.5,79.5,44.8,79.9,44.9z"/>
		<path id="XMLID_984_" class="st0" d="M80.6,46.8c0.4-0.3,0.9-0.5,1.5-0.5c0.6,0,1.1,0.2,1.4,0.5c0.4,0.3,0.5,0.7,0.5,1.2
			c0,0.5-0.2,0.9-0.5,1.2c-0.4,0.3-0.8,0.5-1.4,0.5c-0.6,0-1.1-0.2-1.5-0.5C80.2,49,80,48.6,80,48.1C80,47.6,80.2,47.2,80.6,46.8z
			 M83.8,59.1c0,0.1-0.1,0.2-0.2,0.2h-3.1c-0.1,0-0.2-0.1-0.2-0.2v-8.4c0-0.1,0.1-0.2,0.2-0.2h3.1c0.1,0,0.2,0.1,0.2,0.2V59.1z"/>
	</g>
	<rect id="XMLID_219_" class="st3" width="101" height="83"/>
</g>
</svg>
